<svg xmlns="http://www.w3.org/2000/svg" xmlns:xlink="http://www.w3.org/1999/xlink" width="1080" zoomAndPan="magnify" viewBox="0 0 810 809.999993" height="1080" preserveAspectRatio="xMidYMid meet" version="1.0"><defs><clipPath id="e3bbfc9154"><path d="M 292 188 L 667.496094 188 L 667.496094 707.964844 L 292 707.964844 Z M 292 188 " clip-rule="nonzero"/></clipPath><clipPath id="c671ee3045"><path d="M 142.496094 101.964844 L 480 101.964844 L 480 384 L 142.496094 384 Z M 142.496094 101.964844 " clip-rule="nonzero"/></clipPath><clipPath id="4d40f42e05"><path d="M 142.496094 304 L 421 304 L 421 600 L 142.496094 600 Z M 142.496094 304 " clip-rule="nonzero"/></clipPath></defs><g clip-path="url(#e3bbfc9154)"><path fill="#ffffff" d="M 667.363281 253.464844 C 629.90625 231.890625 592.332031 210.195312 554.875 188.378906 C 499.722656 220.375 444.570312 252.132812 389.417969 283.886719 L 455.359375 332.488281 L 554.875 275.039062 L 592.332031 296.613281 L 592.332031 339.878906 C 529.785156 375.996094 467.601562 412.113281 405.054688 448.234375 C 454.996094 476.957031 504.9375 505.679688 554.875 534.769531 C 504.9375 563.492188 454.996094 592.460938 405.054688 621.304688 L 367.480469 599.734375 L 367.480469 556.464844 L 405.054688 534.890625 L 330.023438 491.621094 L 292.570312 513.195312 C 292.570312 556.464844 292.570312 599.734375 292.570312 642.878906 C 330.023438 664.453125 367.359375 686.390625 405.054688 707.964844 C 492.453125 657.425781 579.96875 607.003906 667.363281 556.464844 L 667.363281 513.195312 C 629.90625 491.621094 592.332031 469.925781 554.875 448.355469 C 592.332031 426.539062 629.90625 404.84375 667.363281 383.269531 Z M 667.363281 253.464844 " fill-opacity="1" fill-rule="nonzero"/></g><g clip-path="url(#c671ee3045)"><path fill="#ffffff" d="M 217.660156 296.734375 C 305.054688 246.191406 392.570312 195.773438 479.964844 145.234375 L 405.175781 101.964844 C 317.539062 152.503906 230.144531 202.925781 142.628906 253.464844 C 142.628906 296.734375 142.628906 340 142.628906 383.148438 L 217.660156 339.878906 Z M 217.660156 296.734375 " fill-opacity="1" fill-rule="nonzero"/></g><g clip-path="url(#4d40f42e05)"><path fill="#ffffff" d="M 354.144531 304.488281 C 283.597656 345.210938 213.175781 385.816406 142.628906 426.417969 L 142.628906 556.464844 C 167.71875 571.007812 192.566406 585.1875 217.660156 599.734375 L 217.660156 470.046875 C 285.175781 430.902344 352.570312 391.996094 420.085938 353.089844 Z M 354.144531 304.488281 " fill-opacity="1" fill-rule="nonzero"/></g></svg>