<svg width="22" height="22" viewBox="0 0 22 22" fill="none" xmlns="http://www.w3.org/2000/svg">
<g id="SVG">
<path id="Vector" d="M12.8845 7.32759C13.8416 7.32873 14.6185 6.55373 14.6196 5.59658C14.6208 4.63943 13.8458 3.86258 12.8886 3.86144C11.9315 3.8603 11.1546 4.6353 11.1535 5.59245C11.1523 6.5496 11.9273 7.32645 12.8845 7.32759Z" stroke="#5E35B1" stroke-width="1.29981" stroke-linecap="round" stroke-linejoin="round"/>
<path id="Vector_2" d="M4.22014 5.58594L11.1535 5.5942" stroke="#5E35B1" stroke-width="1.29981" stroke-linecap="round" stroke-linejoin="round"/>
<path id="Vector_3" d="M14.6201 5.59766L18.0863 5.60178" stroke="#5E35B1" stroke-width="1.29981" stroke-linecap="round" stroke-linejoin="round"/>
<path id="Vector_4" d="M7.67829 12.5229C8.63544 12.524 9.41228 11.749 9.41342 10.7919C9.41456 9.83474 8.63956 9.05789 7.68241 9.05675C6.72526 9.05561 5.94842 9.83061 5.94728 10.7878C5.94614 11.7449 6.72114 12.5218 7.67829 12.5229Z" stroke="#5E35B1" stroke-width="1.29981" stroke-linecap="round" stroke-linejoin="round"/>
<path id="Vector_5" d="M4.21394 10.7852L5.94702 10.7872" stroke="#5E35B1" stroke-width="1.29981" stroke-linecap="round" stroke-linejoin="round"/>
<path id="Vector_6" d="M9.41394 10.791L18.0806 10.8013" stroke="#5E35B1" stroke-width="1.29981" stroke-linecap="round" stroke-linejoin="round"/>
<path id="Vector_7" d="M15.4721 17.7319C16.4292 17.733 17.2061 16.958 17.2072 16.0009C17.2084 15.0437 16.4334 14.2669 15.4762 14.2657C14.5191 14.2646 13.7422 15.0396 13.7411 15.9967C13.7399 16.9539 14.5149 17.7307 15.4721 17.7319Z" stroke="#5E35B1" stroke-width="1.29981" stroke-linecap="round" stroke-linejoin="round"/>
<path id="Vector_8" d="M4.20776 15.9844L13.7411 15.9957" stroke="#5E35B1" stroke-width="1.29981" stroke-linecap="round" stroke-linejoin="round"/>
<path id="Vector_9" d="M17.2077 16L18.0743 16.001" stroke="#5E35B1" stroke-width="1.29981" stroke-linecap="round" stroke-linejoin="round"/>
</g>
</svg>
